<svg width="27" height="28" viewBox="0 0 27 28" fill="none" xmlns="http://www.w3.org/2000/svg">
<g filter="url(#filter0_di_1_1297)">
<g clip-path="url(#clip0_1_1297)">
<path d="M5 12.0001C5 11.1351 5.11 10.2971 5.316 9.49606C5.86847 9.5251 6.4182 9.40081 6.90444 9.13693C7.39068 8.87305 7.79448 8.47985 8.07121 8.00081C8.34793 7.52176 8.48681 6.97552 8.47247 6.42248C8.45814 5.86944 8.29117 5.33113 7.99 4.86706C9.19894 3.67763 10.6908 2.81556 12.325 2.36206C12.576 2.85553 12.9586 3.26993 13.4306 3.55937C13.9025 3.84881 14.4454 4.00202 14.999 4.00202C15.5526 4.00202 16.0955 3.84881 16.5674 3.55937C17.0394 3.26993 17.422 2.85553 17.673 2.36206C19.3072 2.81556 20.7991 3.67763 22.008 4.86706C21.7065 5.33121 21.5393 5.86973 21.5248 6.42303C21.5104 6.97632 21.6493 7.52283 21.9262 8.00207C22.2031 8.48132 22.6071 8.87463 23.0937 9.13848C23.5802 9.40232 24.1303 9.52643 24.683 9.49706C24.889 10.2971 24.999 11.1351 24.999 12.0001C24.999 12.8651 24.889 13.7031 24.683 14.5041C24.1305 14.4748 23.5806 14.599 23.0942 14.8628C22.6078 15.1266 22.2039 15.5198 21.927 15.9988C21.6502 16.4779 21.5112 17.0242 21.5255 17.5774C21.5398 18.1305 21.7068 18.6689 22.008 19.1331C20.7991 20.3225 19.3072 21.1846 17.673 21.6381C17.422 21.1446 17.0394 20.7302 16.5674 20.4408C16.0955 20.1513 15.5526 19.9981 14.999 19.9981C14.4454 19.9981 13.9025 20.1513 13.4306 20.4408C12.9586 20.7302 12.576 21.1446 12.325 21.6381C10.6908 21.1846 9.19894 20.3225 7.99 19.1331C8.29151 18.6689 8.45873 18.1304 8.47317 17.5771C8.48761 17.0238 8.3487 16.4773 8.07181 15.998C7.79492 15.5188 7.39085 15.1255 6.90431 14.8616C6.41776 14.5978 5.8677 14.4737 5.315 14.5031C5.11 13.7041 5 12.8661 5 12.0001ZM9.804 15.0001C10.434 16.0911 10.614 17.3461 10.368 18.5241C10.776 18.8141 11.21 19.0651 11.665 19.2741C12.5817 18.4529 13.7693 17.9992 15 18.0001C16.26 18.0001 17.438 18.4711 18.335 19.2741C18.79 19.0651 19.224 18.8141 19.632 18.5241C19.3794 17.32 19.5803 16.0651 20.196 15.0001C20.8106 13.9344 21.797 13.1332 22.966 12.7501C23.0122 12.2511 23.0122 11.749 22.966 11.2501C21.7966 10.8671 20.8099 10.0659 20.195 9.00006C19.5793 7.93499 19.3784 6.6801 19.631 5.47606C19.2231 5.18598 18.7889 4.93488 18.334 4.72606C17.4176 5.54699 16.2303 6.00067 15 6.00006C13.7693 6.00092 12.5817 5.54722 11.665 4.72606C11.2101 4.93488 10.7759 5.18599 10.368 5.47606C10.6206 6.6801 10.4197 7.93499 9.804 9.00006C9.18937 10.0657 8.20298 10.8669 7.034 11.2501C6.98775 11.749 6.98775 12.2511 7.034 12.7501C8.20335 13.133 9.19013 13.9342 9.805 15.0001H9.804ZM15 15.0001C14.2044 15.0001 13.4413 14.684 12.8787 14.1214C12.3161 13.5588 12 12.7957 12 12.0001C12 11.2044 12.3161 10.4413 12.8787 9.87874C13.4413 9.31613 14.2044 9.00006 15 9.00006C15.7956 9.00006 16.5587 9.31613 17.1213 9.87874C17.6839 10.4413 18 11.2044 18 12.0001C18 12.7957 17.6839 13.5588 17.1213 14.1214C16.5587 14.684 15.7956 15.0001 15 15.0001ZM15 13.0001C15.2652 13.0001 15.5196 12.8947 15.7071 12.7072C15.8946 12.5196 16 12.2653 16 12.0001C16 11.7348 15.8946 11.4805 15.7071 11.293C15.5196 11.1054 15.2652 11.0001 15 11.0001C14.7348 11.0001 14.4804 11.1054 14.2929 11.293C14.1054 11.4805 14 11.7348 14 12.0001C14 12.2653 14.1054 12.5196 14.2929 12.7072C14.4804 12.8947 14.7348 13.0001 15 13.0001Z" fill="white"/>
</g>
</g>
<defs>
<filter id="filter0_di_1_1297" x="0" y="0" width="27" height="28" filterUnits="userSpaceOnUse" color-interpolation-filters="sRGB">
<feFlood flood-opacity="0" result="BackgroundImageFix"/>
<feColorMatrix in="SourceAlpha" type="matrix" values="0 0 0 0 0 0 0 0 0 0 0 0 0 0 0 0 0 0 127 0" result="hardAlpha"/>
<feOffset dx="-2" dy="3"/>
<feGaussianBlur stdDeviation="0.5"/>
<feColorMatrix type="matrix" values="0 0 0 0 0 0 0 0 0 0 0 0 0 0 0 0 0 0 0.1 0"/>
<feBlend mode="normal" in2="BackgroundImageFix" result="effect1_dropShadow_1_1297"/>
<feBlend mode="normal" in="SourceGraphic" in2="effect1_dropShadow_1_1297" result="shape"/>
<feColorMatrix in="SourceAlpha" type="matrix" values="0 0 0 0 0 0 0 0 0 0 0 0 0 0 0 0 0 0 127 0" result="hardAlpha"/>
<feOffset dx="-1" dy="1"/>
<feGaussianBlur stdDeviation="1"/>
<feComposite in2="hardAlpha" operator="arithmetic" k2="-1" k3="1"/>
<feColorMatrix type="matrix" values="0 0 0 0 1 0 0 0 0 1 0 0 0 0 1 0 0 0 0.25 0"/>
<feBlend mode="normal" in2="shape" result="effect2_innerShadow_1_1297"/>
</filter>
<clipPath id="clip0_1_1297">
<rect width="24" height="24" fill="white" transform="translate(3)"/>
</clipPath>
</defs>
</svg>
